<?xml version="1.0" encoding="UTF-8"?>
<svg width="32" height="32" version="1.1" viewBox="0 0 32 32" xmlns="http://www.w3.org/2000/svg">
 <path d="m16 0c-2.25 0-4 1.75-4 4 0 1.5 0.75 2.75 2 3.4v2.6c-1 0-2 1-2 2h-4c-2.25 0-4 1.75-4 4h-2c-1 0-2 1-2 2v6c0 1 1 2 2 2h2c0 2.25 1.75 4 4 4h4c0 1 1 2 2 2h4c1 0 2-1 2-2h4c2.25 0 4-1.75 4-4h2c1 0 2-1 2-2v-6c0-1-1-2-2-2h-2c0-2.25-1.75-4-4-4h-4c0-1-1-2-2-2v-2.6c1.25-0.65 2-1.9 2-3.4 0-2.25-1.75-4-4-4zm-7 18c1.75 0 3 1.25 3 3s-1.25 3-3 3-3-1.25-3-3 1.25-3 3-3zm14 0c1.75 0 3 1.25 3 3s-1.25 3-3 3-3-1.25-3-3 1.25-3 3-3z" fill="#fff"/>
</svg>
